<mxfile host="Electron" modified="2025-05-30T17:03:38.503Z" agent="Mozilla/5.0 (Windows NT 10.0; Win64; x64) AppleWebKit/537.36 (KHTML, like Gecko) draw.io/24.6.4 Chrome/124.0.6367.207 Electron/30.0.6 Safari/537.36" etag="UQ2CCSuIeF-lgV_FOmCn" version="24.6.4" type="device">
  <diagram id="ec7dsXRxZqBlURVk468d" name="Страница — 2">
    <mxGraphModel dx="1233" dy="907" grid="1" gridSize="10" guides="1" tooltips="1" connect="1" arrows="1" fold="1" page="1" pageScale="1" pageWidth="1169" pageHeight="827" math="0" shadow="0">
      <root>
        <mxCell id="0" />
        <mxCell id="1" parent="0" />
        <mxCell id="MoLUOoWKBqtgpBnRlrvZ-8" value="&lt;font face=&quot;Roboto Condensed, sans-serif&quot;&gt;&lt;span style=&quot;font-size: 32px; background-color: rgb(255, 255, 255);&quot;&gt;&lt;font color=&quot;#ff0000&quot;&gt;B&lt;/font&gt; - C# - &lt;font color=&quot;#ff0000&quot;&gt;D&lt;/font&gt; - E - &lt;font color=&quot;#ff0000&quot;&gt;F#&lt;/font&gt; - G - A - B&lt;/span&gt;&lt;/font&gt;" style="text;strokeColor=none;align=center;fillColor=none;html=1;verticalAlign=middle;whiteSpace=wrap;rounded=0;fontSize=16;" parent="1" vertex="1">
          <mxGeometry x="660" y="30" width="490" height="30" as="geometry" />
        </mxCell>
        <mxCell id="MoLUOoWKBqtgpBnRlrvZ-9" value="&lt;b&gt;&lt;font style=&quot;font-size: 25px;&quot;&gt;B0 - F1# - B1 - D2# - F2#&lt;/font&gt;&lt;/b&gt;" style="text;strokeColor=none;align=center;fillColor=none;html=1;verticalAlign=middle;whiteSpace=wrap;rounded=0;fontSize=16;" parent="1" vertex="1">
          <mxGeometry x="60" y="383.5" width="415" height="30" as="geometry" />
        </mxCell>
        <mxCell id="MoLUOoWKBqtgpBnRlrvZ-12" value="&lt;div style=&quot;text-align: center;&quot;&gt;&lt;font face=&quot;Roboto Condensed, sans-serif&quot;&gt;&lt;span style=&quot;font-size: 32px; font-weight: 400; background-color: rgb(255, 255, 255);&quot;&gt;&lt;font color=&quot;#ff0000&quot;&gt;B&lt;/font&gt; - C# - &lt;font color=&quot;#ff0000&quot;&gt;D#&lt;/font&gt; - E - &lt;font color=&quot;#ff0000&quot;&gt;F#&lt;/font&gt; - G# - A# - B&lt;/span&gt;&lt;/font&gt;&lt;/div&gt;" style="text;strokeColor=none;align=center;fillColor=none;html=1;verticalAlign=middle;whiteSpace=wrap;rounded=0;fontSize=16;fontStyle=1" parent="1" vertex="1">
          <mxGeometry x="40" y="30" width="510" height="30" as="geometry" />
        </mxCell>
        <mxCell id="MoLUOoWKBqtgpBnRlrvZ-13" value="&lt;b&gt;&lt;font style=&quot;font-size: 25px;&quot;&gt;B0 - D1# - F1# - B1 - D2# - B2&lt;/font&gt;&lt;/b&gt;" style="text;strokeColor=none;align=center;fillColor=none;html=1;verticalAlign=middle;whiteSpace=wrap;rounded=0;fontSize=16;" parent="1" vertex="1">
          <mxGeometry x="50" y="760" width="415" height="30" as="geometry" />
        </mxCell>
        <mxCell id="MoLUOoWKBqtgpBnRlrvZ-14" value="&lt;b&gt;&lt;font style=&quot;font-size: 25px;&quot;&gt;B0 - F1# - B1 - D2 - F2#&lt;/font&gt;&lt;/b&gt;" style="text;strokeColor=none;align=center;fillColor=none;html=1;verticalAlign=middle;whiteSpace=wrap;rounded=0;fontSize=16;" parent="1" vertex="1">
          <mxGeometry x="650" y="384" width="415" height="30" as="geometry" />
        </mxCell>
        <mxCell id="MoLUOoWKBqtgpBnRlrvZ-15" value="&lt;span style=&quot;font-size: 25px;&quot;&gt;&lt;b&gt;B0 - D1 - F1# - D2&lt;/b&gt;&lt;/span&gt;" style="text;strokeColor=none;align=center;fillColor=none;html=1;verticalAlign=middle;whiteSpace=wrap;rounded=0;fontSize=16;" parent="1" vertex="1">
          <mxGeometry x="640" y="760" width="415" height="30" as="geometry" />
        </mxCell>
        <mxCell id="JGZSNN1Xq2OigiJdGNbB-1" value="" style="shape=image;verticalLabelPosition=bottom;labelBackgroundColor=default;verticalAlign=top;aspect=fixed;imageAspect=0;image=https://pereborom.ru/wp-content/uploads/2018/09/B-2.png;" vertex="1" parent="1">
          <mxGeometry x="10" y="110" width="270" height="270" as="geometry" />
        </mxCell>
        <mxCell id="JGZSNN1Xq2OigiJdGNbB-2" value="" style="shape=image;verticalLabelPosition=bottom;labelBackgroundColor=default;verticalAlign=top;aspect=fixed;imageAspect=0;image=https://pereborom.ru/wp-content/uploads/2018/09/B-2.jpg;" vertex="1" parent="1">
          <mxGeometry x="275" y="100" width="260" height="260" as="geometry" />
        </mxCell>
        <mxCell id="JGZSNN1Xq2OigiJdGNbB-3" value="" style="shape=image;verticalLabelPosition=bottom;labelBackgroundColor=default;verticalAlign=top;aspect=fixed;imageAspect=0;image=https://pereborom.ru/wp-content/uploads/2018/09/B-4.png;" vertex="1" parent="1">
          <mxGeometry x="5" y="470" width="270" height="270" as="geometry" />
        </mxCell>
        <mxCell id="JGZSNN1Xq2OigiJdGNbB-4" value="" style="shape=image;verticalLabelPosition=bottom;labelBackgroundColor=default;verticalAlign=top;aspect=fixed;imageAspect=0;image=https://pereborom.ru/wp-content/uploads/2018/09/B-4.jpg;" vertex="1" parent="1">
          <mxGeometry x="275" y="460" width="260" height="260" as="geometry" />
        </mxCell>
        <mxCell id="JGZSNN1Xq2OigiJdGNbB-5" value="" style="shape=image;verticalLabelPosition=bottom;labelBackgroundColor=default;verticalAlign=top;aspect=fixed;imageAspect=0;image=https://pereborom.ru/wp-content/uploads/2018/09/Bm-2.png;" vertex="1" parent="1">
          <mxGeometry x="570" y="110" width="270" height="270" as="geometry" />
        </mxCell>
        <mxCell id="JGZSNN1Xq2OigiJdGNbB-6" value="" style="shape=image;verticalLabelPosition=bottom;labelBackgroundColor=default;verticalAlign=top;aspect=fixed;imageAspect=0;image=https://pereborom.ru/wp-content/uploads/2018/09/Bm-2.jpg;" vertex="1" parent="1">
          <mxGeometry x="850" y="100" width="260" height="260" as="geometry" />
        </mxCell>
        <mxCell id="JGZSNN1Xq2OigiJdGNbB-7" value="" style="shape=image;verticalLabelPosition=bottom;labelBackgroundColor=default;verticalAlign=top;aspect=fixed;imageAspect=0;image=https://pereborom.ru/wp-content/uploads/2018/09/Bm-4.png;" vertex="1" parent="1">
          <mxGeometry x="570" y="470" width="270" height="270" as="geometry" />
        </mxCell>
        <mxCell id="JGZSNN1Xq2OigiJdGNbB-8" value="" style="shape=image;verticalLabelPosition=bottom;labelBackgroundColor=default;verticalAlign=top;aspect=fixed;imageAspect=0;image=https://pereborom.ru/wp-content/uploads/2018/09/Bm-4.jpg;" vertex="1" parent="1">
          <mxGeometry x="840" y="450" width="270" height="270" as="geometry" />
        </mxCell>
      </root>
    </mxGraphModel>
  </diagram>
</mxfile>
